<mxfile host="Electron" agent="Mozilla/5.0 (Windows NT 10.0; Win64; x64) AppleWebKit/537.36 (KHTML, like Gecko) draw.io/25.0.2 Chrome/128.0.6613.186 Electron/32.2.5 Safari/537.36" version="25.0.2">
  <diagram name="Страница — 1" id="lr6myw8VAHS_2aukRwkA">
    <mxGraphModel dx="2665" dy="1220" grid="1" gridSize="10" guides="1" tooltips="1" connect="1" arrows="1" fold="1" page="1" pageScale="1" pageWidth="827" pageHeight="1169" math="0" shadow="0">
      <root>
        <mxCell id="0" />
        <mxCell id="1" parent="0" />
        <mxCell id="4rVWjQRG3LJS24E18fTX-17" value="&lt;div style=&quot;&quot;&gt;&lt;span style=&quot;background-color: initial;&quot;&gt;network gateway rabbit&lt;/span&gt;&lt;/div&gt;" style="rounded=0;whiteSpace=wrap;html=1;rotation=0;align=center;" vertex="1" parent="1">
          <mxGeometry x="370" y="170" width="290" height="250" as="geometry" />
        </mxCell>
        <mxCell id="4rVWjQRG3LJS24E18fTX-1" value="sample test folder with files" style="rounded=0;whiteSpace=wrap;html=1;" vertex="1" parent="1">
          <mxGeometry x="60" y="200" width="120" height="60" as="geometry" />
        </mxCell>
        <mxCell id="4rVWjQRG3LJS24E18fTX-20" value="" style="edgeStyle=orthogonalEdgeStyle;rounded=0;orthogonalLoop=1;jettySize=auto;html=1;" edge="1" parent="1" source="4rVWjQRG3LJS24E18fTX-2" target="4rVWjQRG3LJS24E18fTX-3">
          <mxGeometry relative="1" as="geometry" />
        </mxCell>
        <mxCell id="4rVWjQRG3LJS24E18fTX-2" value="background service" style="rounded=0;whiteSpace=wrap;html=1;" vertex="1" parent="1">
          <mxGeometry x="220" y="200" width="120" height="60" as="geometry" />
        </mxCell>
        <mxCell id="4rVWjQRG3LJS24E18fTX-24" value="" style="edgeStyle=orthogonalEdgeStyle;rounded=0;orthogonalLoop=1;jettySize=auto;html=1;" edge="1" parent="1" source="4rVWjQRG3LJS24E18fTX-3" target="4rVWjQRG3LJS24E18fTX-4">
          <mxGeometry relative="1" as="geometry" />
        </mxCell>
        <mxCell id="4rVWjQRG3LJS24E18fTX-3" value="push-sftp-queue" style="rounded=0;whiteSpace=wrap;html=1;" vertex="1" parent="1">
          <mxGeometry x="455" y="200" width="120" height="60" as="geometry" />
        </mxCell>
        <mxCell id="4rVWjQRG3LJS24E18fTX-26" value="" style="edgeStyle=orthogonalEdgeStyle;rounded=0;orthogonalLoop=1;jettySize=auto;html=1;" edge="1" parent="1" source="4rVWjQRG3LJS24E18fTX-4" target="4rVWjQRG3LJS24E18fTX-6">
          <mxGeometry relative="1" as="geometry" />
        </mxCell>
        <mxCell id="4rVWjQRG3LJS24E18fTX-4" value="push-listener" style="rounded=0;whiteSpace=wrap;html=1;" vertex="1" parent="1">
          <mxGeometry x="680" y="200" width="120" height="60" as="geometry" />
        </mxCell>
        <mxCell id="4rVWjQRG3LJS24E18fTX-6" value="final folder push storage" style="rounded=0;whiteSpace=wrap;html=1;" vertex="1" parent="1">
          <mxGeometry x="850" y="200" width="120" height="60" as="geometry" />
        </mxCell>
        <mxCell id="4rVWjQRG3LJS24E18fTX-21" value="" style="edgeStyle=orthogonalEdgeStyle;rounded=0;orthogonalLoop=1;jettySize=auto;html=1;" edge="1" parent="1" source="4rVWjQRG3LJS24E18fTX-9" target="4rVWjQRG3LJS24E18fTX-18">
          <mxGeometry relative="1" as="geometry" />
        </mxCell>
        <mxCell id="4rVWjQRG3LJS24E18fTX-9" value="sftp server" style="rounded=0;whiteSpace=wrap;html=1;" vertex="1" parent="1">
          <mxGeometry x="-60" y="340" width="120" height="60" as="geometry" />
        </mxCell>
        <mxCell id="4rVWjQRG3LJS24E18fTX-23" value="" style="edgeStyle=orthogonalEdgeStyle;rounded=0;orthogonalLoop=1;jettySize=auto;html=1;" edge="1" parent="1" source="4rVWjQRG3LJS24E18fTX-10" target="4rVWjQRG3LJS24E18fTX-11">
          <mxGeometry relative="1" as="geometry" />
        </mxCell>
        <mxCell id="4rVWjQRG3LJS24E18fTX-10" value="background service" style="rounded=0;whiteSpace=wrap;html=1;" vertex="1" parent="1">
          <mxGeometry x="220" y="340" width="120" height="60" as="geometry" />
        </mxCell>
        <mxCell id="4rVWjQRG3LJS24E18fTX-25" value="" style="edgeStyle=orthogonalEdgeStyle;rounded=0;orthogonalLoop=1;jettySize=auto;html=1;" edge="1" parent="1" source="4rVWjQRG3LJS24E18fTX-11" target="4rVWjQRG3LJS24E18fTX-12">
          <mxGeometry relative="1" as="geometry" />
        </mxCell>
        <mxCell id="4rVWjQRG3LJS24E18fTX-11" value="pull-sftp-queue" style="rounded=0;whiteSpace=wrap;html=1;" vertex="1" parent="1">
          <mxGeometry x="455" y="340" width="120" height="60" as="geometry" />
        </mxCell>
        <mxCell id="4rVWjQRG3LJS24E18fTX-27" value="" style="edgeStyle=orthogonalEdgeStyle;rounded=0;orthogonalLoop=1;jettySize=auto;html=1;" edge="1" parent="1" source="4rVWjQRG3LJS24E18fTX-12" target="4rVWjQRG3LJS24E18fTX-13">
          <mxGeometry relative="1" as="geometry" />
        </mxCell>
        <mxCell id="4rVWjQRG3LJS24E18fTX-12" value="pull-listener" style="rounded=0;whiteSpace=wrap;html=1;" vertex="1" parent="1">
          <mxGeometry x="680" y="340" width="120" height="60" as="geometry" />
        </mxCell>
        <mxCell id="4rVWjQRG3LJS24E18fTX-13" value="final folder pull storage" style="rounded=0;whiteSpace=wrap;html=1;" vertex="1" parent="1">
          <mxGeometry x="850" y="340" width="120" height="60" as="geometry" />
        </mxCell>
        <mxCell id="4rVWjQRG3LJS24E18fTX-15" value="PM" style="rounded=0;whiteSpace=wrap;html=1;" vertex="1" parent="1">
          <mxGeometry x="1020" y="170" width="251" height="250" as="geometry" />
        </mxCell>
        <mxCell id="4rVWjQRG3LJS24E18fTX-22" value="" style="edgeStyle=orthogonalEdgeStyle;rounded=0;orthogonalLoop=1;jettySize=auto;html=1;" edge="1" parent="1" source="4rVWjQRG3LJS24E18fTX-18" target="4rVWjQRG3LJS24E18fTX-10">
          <mxGeometry relative="1" as="geometry" />
        </mxCell>
        <mxCell id="4rVWjQRG3LJS24E18fTX-18" value="folder temporary" style="rounded=0;whiteSpace=wrap;html=1;" vertex="1" parent="1">
          <mxGeometry x="80" y="340" width="120" height="60" as="geometry" />
        </mxCell>
        <mxCell id="4rVWjQRG3LJS24E18fTX-19" value="" style="endArrow=classic;html=1;rounded=0;entryX=0;entryY=0.5;entryDx=0;entryDy=0;" edge="1" parent="1" target="4rVWjQRG3LJS24E18fTX-2">
          <mxGeometry width="50" height="50" relative="1" as="geometry">
            <mxPoint x="180" y="230" as="sourcePoint" />
            <mxPoint x="230" y="180" as="targetPoint" />
          </mxGeometry>
        </mxCell>
      </root>
    </mxGraphModel>
  </diagram>
</mxfile>
